<svg width="188" height="192" fill="none" xmlns="http://www.w3.org/2000/svg"><path d="M148.207 48.08c-1.567-4.72-5.954-8.08-11.124-8.08H50.917c-5.17 0-9.479 3.36-11.124 8.08L23.5 96v64c0 4.4 3.525 8 7.833 8h7.834c4.308 0 7.833-3.6 7.833-8v-8h94v8c0 4.4 3.525 8 7.833 8h7.834c4.308 0 7.833-3.6 7.833-8V96l-16.293-47.92ZM53.658 56h80.605l8.46 24.88H45.198L53.658 56Zm95.175 80H39.167V96h109.666v40Z" fill="#0463BC"/><path d="M58.75 128c6.49 0 11.75-5.373 11.75-12s-5.26-12-11.75-12S47 109.373 47 116s5.26 12 11.75 12ZM129.25 128c6.489 0 11.75-5.373 11.75-12s-5.261-12-11.75-12-11.75 5.373-11.75 12 5.261 12 11.75 12Z" fill="#0463BC"/></svg>