<svg width="256" height="256" fill="none" xmlns="http://www.w3.org/2000/svg"><path d="M216 68h-27.6a36.002 36.002 0 0 0-34.989-52.164A36 36 0 0 0 130.8 26.3a30.381 30.381 0 0 0-2.8 3.3 30.381 30.381 0 0 0-2.8-3.3A36 36 0 0 0 67.6 68H40a20.1 20.1 0 0 0-20 20v32a20.098 20.098 0 0 0 16 19.6V200a20.1 20.1 0 0 0 20 20h144a20.1 20.1 0 0 0 20-20v-60.4a20.099 20.099 0 0 0 16-19.6V88a20.1 20.1 0 0 0-20-20Zm-4 48h-72V92h72v24Zm-64.2-72.8a11.994 11.994 0 0 1 8.5-3.5 11.999 11.999 0 0 1 8.5 20.5c-3.3 3.3-13.5 5.8-24.1 7 1.4-11.8 4.3-21.2 7.1-24Zm-56.6 0a12.2 12.2 0 0 1 17 0c3.3 3.3 5.8 13.5 7 24.1-11.8-1.4-21.2-4.3-24-7.1a12.2 12.2 0 0 1 0-17ZM44 92h72v24H44V92Zm16 48h56v56H60v-56Zm80 56v-56h56v56h-56Z" fill="#fff"/></svg>